<?xml version="1.0" encoding="UTF-8"?>
<svg width="50px" height="50px" viewBox="0 0 50 50" version="1.1" xmlns="http://www.w3.org/2000/svg" xmlns:xlink="http://www.w3.org/1999/xlink">
    <!-- Generator: Sketch 60 (88103) - https://sketch.com -->
    <title> Icons/Type/BrandOptimized/Bop-171</title>
    <desc>Created with Sketch.</desc>
    <g id="-Icons/Type/BrandOptimized/Bop-171" stroke="none" stroke-width="1" fill="none" fill-rule="evenodd">
        <path d="M17,25 C17,29.411 20.589,33 25,33 C29.411,33 33,29.411 33,25 L33,25 L35,25 C35,30.176 31.046,34.446 26,34.949 L26,34.949 L26,41 L29.857,41 L29.857,43 L20.143,43 L20.143,41 L24,41 L24,34.949 C18.954,34.446 15,30.176 15,25 L15,25 Z M25.143,7.0004 C28.372,7.0004 31,9.6274 31,12.8574 L31,12.8574 L31,25.1434 C31,28.3724 28.372,31.0004 25.143,31.0004 L25.143,31.0004 L24.857,31.0004 C21.628,31.0004 19,28.3724 19,25.1434 L19,25.1434 L19,12.8574 C19,9.6274 21.628,7.0004 24.857,7.0004 L24.857,7.0004 Z M25.143,9.0004 L24.857,9.0004 C22.73,9.0004 21,10.7304 21,12.8574 L21,12.8574 L21,25.1434 C21,27.2704 22.73,29.0004 24.857,29.0004 L24.857,29.0004 L25.143,29.0004 C27.27,29.0004 29,27.2704 29,25.1434 L29,25.1434 L29,12.8574 C29,10.7304 27.27,9.0004 25.143,9.0004 L25.143,9.0004 Z" id="Combined-Shape" fill="#ffffff"></path>
    </g>
</svg>