<?xml version="1.0" encoding="UTF-8"?>
<svg width="24px" height="24px" viewBox="0 0 24 24" version="1.1" xmlns="http://www.w3.org/2000/svg" xmlns:xlink="http://www.w3.org/1999/xlink">
    <!-- Generator: Sketch 61.2 (89653) - https://sketch.com -->
    <title>Icons/Type/BrandOptimized/Bop-001</title>
    <desc>Created with Sketch.</desc>
    <g id="Page-1" stroke="none" stroke-width="1" fill="none" fill-rule="evenodd">
        <g id="Modules-/-Navigation-/-Main-/-Search-/-Wide" transform="translate(-979.000000, -352.000000)" fill="#FFFFFF">
            <g id="-Icons/Type/BrandOptimized/Bop-171" transform="translate(979.000000, 352.000000)">
                <path d="M7.679808,12.007008 C7.679808,14.396928 9.624288,16.340928 12.014208,16.340928 C14.403648,16.340928 16.348128,14.396928 16.348128,12.007008 L16.348128,12.007008 L17.308128,12.007008 C17.308128,14.759328 15.196608,17.025888 12.508128,17.275968 L12.508128,17.275968 L12.508128,20.639808 L14.428128,20.639808 L14.428128,21.599808 L9.628128,21.599808 L9.628128,20.639808 L11.548128,20.639808 L11.548128,17.277408 C8.846688,17.040288 6.719808,14.768928 6.719808,12.007008 L6.719808,12.007008 Z M12.028128,2.4 C13.880448,2.4 15.388128,3.9072 15.388128,5.76 L15.388128,5.76 L15.388128,12 C15.388128,13.8528 13.880448,15.36 12.028128,15.36 C10.175808,15.36 8.668128,13.8528 8.668128,12 L8.668128,12 L8.668128,5.76 C8.668128,3.9072 10.175808,2.4 12.028128,2.4 Z M12.028128,3.36 C10.704768,3.36 9.628128,4.43664 9.628128,5.76 L9.628128,5.76 L9.628128,12 C9.628128,13.32336 10.704768,14.4 12.028128,14.4 C13.351488,14.4 14.428128,13.32336 14.428128,12 L14.428128,12 L14.428128,5.76 C14.428128,4.43664 13.351488,3.36 12.028128,3.36 Z" id="Combined-Shape"></path>
            </g>
        </g>
    </g>
</svg>