<?xml version="1.0" encoding="UTF-8"?>
<svg width="50px" height="50px" viewBox="0 0 50 50" version="1.1" xmlns="http://www.w3.org/2000/svg" xmlns:xlink="http://www.w3.org/1999/xlink">
    <!-- Generator: Sketch 56.3 (81716) - https://sketch.com -->
    <title> Icons/Type/BrandOptimized/Bop-055</title>
    <desc>Created with Sketch.</desc>
    <g id="-Icons/Type/BrandOptimized/Bop-055" stroke="none" stroke-width="1" fill="none" fill-rule="evenodd">
        <path d="M29,21 C29,16.663 25.337,13 21,13 L21,11 C26.421,11 31,15.579 31,21 L29,21 Z M31.6611,30.0752 C31.1761,30.6452 30.6441,31.1762 30.0751,31.6612 L39.0001,40.5862 L40.5861,39.0002 L31.6611,30.0752 Z M21.0041,33.0082 C23.1821,33.0082 25.2211,32.4162 26.9821,31.3972 L24.2931,28.7072 L25.7071,27.2932 L28.6571,30.2432 C29.2331,29.7642 29.7651,29.2332 30.2431,28.6572 L27.2931,25.7072 L28.7071,24.2932 L31.3961,26.9832 C32.4151,25.2212 33.0081,23.1812 33.0081,21.0042 C33.0081,14.3852 27.6231,9.0002 21.0041,9.0002 C14.3851,9.0002 9.0001,14.3852 9.0001,21.0042 C9.0001,27.6232 14.3851,33.0082 21.0041,33.0082 Z M43.4141,39.0002 L39.0001,43.4142 L28.4401,32.8542 C26.2841,34.2112 23.7401,35.0082 21.0041,35.0082 C13.2691,35.0082 7.0001,28.7382 7.0001,21.0042 C7.0001,13.2692 13.2691,7.0002 21.0041,7.0002 C28.7381,7.0002 35.0081,13.2692 35.0081,21.0042 C35.0081,23.7402 34.2111,26.2842 32.8541,28.4402 L43.4141,39.0002 Z" id="icon" fill="#ffffff"></path>
    </g>
</svg>